<?xml version="1.0" standalone="no"?>
<!DOCTYPE svg PUBLIC "-//W3C//DTD SVG 20010904//EN"
 "http://www.w3.org/TR/2001/REC-SVG-20010904/DTD/svg10.dtd">
<svg version="1.0" xmlns="http://www.w3.org/2000/svg"
 width="519.000000pt" height="692.000000pt" viewBox="0 0 519.000000 692.000000"
 preserveAspectRatio="xMidYMid meet">
<metadata>
Created by potrace 1.16, written by Peter Selinger 2001-2019
</metadata>
<g transform="translate(0.000000,692.000000) scale(0.100000,-0.100000)"
fill="#000000" stroke="none">
<path d="M1709 5971 c-31 -9 -76 -29 -100 -46 -24 -16 -61 -37 -82 -47 -21
-10 -61 -37 -88 -61 -58 -51 -103 -67 -209 -76 l-75 -6 -2 -80 c-3 -109 -6
-120 -58 -226 -35 -70 -48 -112 -56 -169 -8 -66 -32 -265 -46 -388 -3 -24 0
-64 7 -90 6 -26 16 -103 21 -172 5 -77 18 -161 33 -218 30 -109 52 -308 36
-327 -7 -9 -6 -16 4 -24 7 -6 19 -33 25 -58 7 -26 23 -59 36 -74 29 -36 49
-93 41 -123 -3 -12 -17 -35 -30 -49 -18 -19 -26 -42 -30 -80 -6 -65 9 -98 48
-108 26 -7 27 -6 21 14 -16 54 -17 72 -1 120 19 60 35 376 25 522 -6 92 7 161
37 196 8 8 23 42 34 75 11 32 23 65 25 73 3 8 8 71 10 140 5 160 12 223 23
230 4 3 25 31 45 61 44 67 102 124 116 115 6 -3 11 -1 11 6 0 6 8 9 20 6 11
-3 38 3 60 14 21 10 44 19 50 19 5 0 10 4 10 9 0 9 15 14 80 31 70 19 122 22
173 10 29 -7 99 -23 157 -37 138 -34 287 -39 310 -11 11 14 31 20 69 22 30 1
49 0 43 -2 -7 -2 -12 -10 -12 -18 0 -7 -6 -11 -14 -8 -8 3 -17 1 -21 -5 -4 -7
11 -11 44 -11 27 0 62 -5 77 -10 37 -14 124 -71 124 -81 0 -5 20 -22 45 -39
74 -51 102 -83 110 -128 9 -53 43 -63 74 -21 12 16 21 33 21 39 0 26 28 5 49
-37 31 -64 38 -131 17 -172 -9 -17 -21 -29 -25 -26 -5 2 -11 -5 -14 -16 -4
-15 -11 -20 -21 -16 -9 4 -16 2 -16 -2 0 -12 -56 -31 -66 -23 -3 4 -1 -3 5
-16 7 -13 10 -30 7 -38 -3 -8 -1 -14 4 -14 5 0 17 -16 26 -35 9 -19 20 -35 25
-35 5 0 9 -9 9 -21 0 -13 -4 -18 -12 -14 -7 4 0 -5 15 -19 15 -14 25 -26 22
-26 -3 0 8 -20 26 -45 18 -25 30 -47 28 -50 -3 -2 -29 16 -59 40 -59 48 -82
53 -155 34 -22 -6 -83 -12 -135 -12 -57 -1 -104 -7 -118 -15 -12 -7 -31 -10
-42 -7 -14 5 -26 -4 -50 -36 -16 -23 -30 -47 -30 -53 0 -6 -19 -30 -43 -53
-23 -23 -46 -48 -52 -55 -15 -19 -18 -50 -6 -57 5 -4 12 -18 15 -33 2 -14 16
-47 29 -73 24 -44 39 -63 80 -103 21 -20 87 -23 87 -4 0 15 46 9 124 -15 63
-20 175 -13 237 15 26 12 55 19 70 16 19 -5 21 -3 9 5 -12 9 -10 11 11 11 14
0 34 7 45 16 10 8 12 13 4 9 -8 -4 -6 1 5 9 59 47 58 45 52 102 -3 29 -11 69
-18 88 -7 20 -10 38 -7 42 12 11 28 -7 28 -32 0 -20 4 -24 18 -20 19 6 44 -6
41 -20 -1 -5 0 -16 3 -24 28 -76 51 -222 61 -378 4 -63 12 -87 21 -61 31 87
37 114 27 117 -6 2 -11 13 -11 23 0 11 5 17 10 14 6 -3 10 1 10 9 0 9 -5 15
-11 14 -6 -2 -14 3 -16 10 -3 6 0 12 5 12 10 0 9 34 -3 69 -5 16 -3 20 9 15
22 -8 49 -98 48 -161 -1 -70 -37 -148 -68 -147 -19 0 -22 -5 -20 -35 2 -37 5
-41 30 -41 15 0 96 120 108 160 5 14 11 52 14 85 3 33 8 63 11 67 2 5 -1 43
-6 85 -6 43 -12 93 -14 112 -4 46 -29 62 -56 36 -12 -10 -24 -15 -29 -11 -4 4
-9 112 -11 239 -3 256 9 419 40 510 11 32 23 100 28 150 13 130 23 160 66 198
30 27 36 37 31 60 -3 18 0 34 9 43 19 19 19 26 0 26 -11 0 -14 7 -9 24 3 14 1
40 -5 59 -14 42 -140 173 -212 219 -30 19 -80 63 -112 97 -33 33 -62 61 -66
61 -4 0 -30 23 -59 51 -43 42 -52 57 -52 85 0 37 -12 43 -37 19 -18 -18 -84
-13 -139 10 -75 31 -214 16 -214 -24 0 -9 -3 -12 -8 -6 -4 6 -24 18 -46 28
-28 13 -42 15 -51 7 -8 -7 -15 -7 -19 -1 -3 5 0 11 6 14 18 6 -60 27 -100 27
-18 0 -47 -7 -64 -16 -22 -11 -45 -14 -75 -10 -28 4 -42 2 -38 -4 8 -14 -32
-11 -80 5 -39 13 -39 13 -10 15 27 1 28 2 9 10 -12 5 -43 11 -70 15 -27 4 -59
13 -71 21 -30 19 -152 16 -224 -5z"/>
<path d="M1536 4293 c-62 -47 -106 -105 -106 -138 0 -12 3 -16 8 -9 4 7 15 8
27 4 13 -5 34 0 58 12 33 17 42 17 60 6 12 -8 33 -12 47 -11 53 7 85 2 103
-18 10 -11 17 -22 16 -23 -2 -2 -35 -13 -74 -26 -111 -36 -255 -133 -232 -157
3 -2 27 -4 53 -4 134 2 130 2 109 12 -17 8 -16 8 5 3 14 -4 37 -7 53 -7 15 0
27 -4 27 -8 0 -5 15 -9 33 -9 40 0 62 -13 54 -33 -7 -19 -104 -32 -122 -17
-10 8 -15 8 -20 -1 -28 -44 183 -52 290 -11 28 10 49 23 48 28 -1 5 12 17 28
26 23 14 29 14 29 3 0 -8 7 -11 20 -8 11 3 20 9 20 14 0 19 3 24 20 36 23 16
50 74 50 107 0 16 -12 37 -31 55 -39 38 -55 98 -29 106 15 5 17 11 9 37 -11
41 -17 45 -32 24 -12 -16 -14 -16 -25 8 -7 17 -17 24 -27 20 -8 -3 -23 -3 -33
1 -9 4 -102 8 -206 9 l-190 1 -40 -32z"/>
<path d="M2620 3559 c-16 -48 -35 -66 -53 -51 -6 6 -28 12 -47 14 -28 2 -34 7
-32 22 3 14 -1 17 -13 12 -9 -3 -21 -6 -26 -6 -5 0 -9 -6 -9 -13 0 -19 -47
-80 -73 -94 -34 -19 -81 -16 -102 7 -46 51 -225 53 -225 3 0 -20 49 -36 66
-22 7 6 26 8 41 5 15 -3 50 -7 78 -8 27 -1 44 -3 37 -6 -6 -2 -12 -8 -12 -13
0 -6 4 -8 9 -5 5 3 12 -1 15 -10 3 -9 11 -12 18 -8 10 6 10 5 0 -8 -21 -26 9
-43 57 -31 25 7 45 7 56 0 15 -8 17 -7 12 7 -4 9 -2 16 3 16 6 0 10 -4 10 -10
0 -5 8 -10 18 -10 14 0 15 2 2 10 -8 5 -11 10 -6 10 5 0 17 -6 25 -14 24 -22
69 -27 85 -10 8 8 19 14 25 14 12 0 17 18 26 85 3 28 17 67 31 87 28 43 29 54
10 61 -9 4 -18 -8 -26 -34z"/>
<path d="M3138 3472 c-20 -4 -23 -13 -9 -27 6 -6 6 -28 2 -52 -5 -24 -4 -43 0
-43 9 0 12 14 10 40 -1 11 1 11 9 -3 6 -9 8 -22 5 -27 -3 -5 -1 -20 6 -32 12
-23 12 -23 -10 -4 -21 19 -21 19 -21 -1 0 -12 6 -23 14 -26 18 -7 9 -57 -10
-57 -8 0 -14 -9 -14 -20 0 -11 4 -20 9 -20 8 0 8 -9 1 -40 0 -3 -7 4 -15 14
-15 19 -15 19 -15 -2 0 -12 5 -22 10 -22 6 0 10 -7 10 -16 0 -10 -5 -14 -15
-10 -9 3 -15 1 -14 -7 3 -26 -2 -37 -16 -37 -8 0 -15 -5 -15 -11 0 -5 -4 -8
-9 -4 -5 3 -12 1 -16 -5 -3 -5 -2 -10 4 -10 11 0 9 -26 -4 -37 -4 -4 -5 -2 0
6 6 10 2 11 -15 6 -15 -5 -20 -3 -16 3 3 6 1 14 -5 18 -7 4 -9 3 -6 -3 4 -6
-2 -22 -14 -34 -11 -13 -18 -17 -14 -9 5 12 3 11 -7 -1 -7 -9 -28 -20 -46 -23
-23 -6 -32 -13 -32 -27 0 -11 4 -17 10 -14 5 3 7 0 4 -9 -3 -9 -12 -12 -22 -9
-11 5 -14 2 -9 -10 3 -9 2 -19 -3 -22 -5 -3 -6 -13 -3 -22 5 -12 2 -15 -9 -10
-20 7 -31 -26 -14 -43 8 -9 7 -11 -4 -10 -31 4 -42 0 -36 -15 3 -8 -5 -25 -19
-39 -14 -14 -25 -32 -25 -41 0 -9 -9 -15 -22 -15 -12 0 -30 -7 -40 -17 -11 -9
-18 -11 -18 -5 0 7 -9 3 -21 -9 -12 -12 -29 -19 -39 -16 -14 3 -26 -7 -46 -39
-29 -45 -42 -52 -61 -33 -9 9 -11 7 -7 -8 5 -17 -1 -23 -30 -33 -60 -19 -211
-14 -255 9 -18 10 -20 9 -15 -6 5 -17 5 -17 -6 0 -6 9 -16 17 -22 17 -6 0 -16
8 -23 17 -11 15 -13 15 -19 -5 -8 -24 -26 -30 -26 -8 0 9 -10 13 -32 11 -23
-2 -37 3 -46 16 -14 20 -37 16 -26 -4 3 -7 -3 -2 -14 11 -11 12 -23 22 -27 22
-4 0 -15 -10 -26 -22 -14 -17 -17 -18 -13 -5 4 11 1 17 -9 17 -9 0 -18 -9 -22
-20 -4 -13 -14 -19 -31 -18 -13 1 -24 5 -24 9 0 4 -16 10 -35 13 -19 4 -39 14
-44 23 -7 14 -12 15 -25 4 -8 -7 -20 -10 -25 -6 -7 4 -8 -1 -4 -12 6 -16 5
-16 -10 -4 -28 22 -21 -7 8 -33 16 -15 24 -32 23 -47 -2 -18 5 -27 30 -39 31
-15 66 -63 54 -74 -3 -3 0 -6 6 -6 10 0 94 -50 132 -78 3 -2 -3 -8 -13 -13
-21 -12 -13 -29 14 -29 10 0 19 -5 19 -11 0 -5 -4 -8 -9 -5 -5 4 -7 -3 -4 -14
3 -13 0 -20 -8 -21 -8 0 0 -7 16 -14 17 -7 33 -11 38 -8 4 2 7 -1 7 -7 0 -6
-11 -8 -27 -5 -27 6 -27 5 3 -9 36 -16 60 -44 28 -32 -18 7 -18 6 -1 -11 15
-16 19 -16 27 -3 8 13 10 13 10 -2 0 -21 80 -33 204 -30 96 2 113 -2 95 -24
-10 -12 -6 -13 22 -8 l34 5 -24 -20 c-13 -12 -19 -21 -14 -21 5 0 14 5 21 12
7 7 12 8 12 2 0 -5 9 -10 19 -10 11 0 18 3 15 7 -5 8 27 22 34 14 3 -3 0 -5
-6 -5 -7 0 -12 -5 -12 -11 0 -5 5 -7 10 -4 6 3 10 2 10 -4 0 -6 10 -15 23 -21
22 -11 22 -11 2 6 -20 16 -20 16 4 11 14 -4 31 -1 38 5 9 7 13 7 13 0 0 -6 -5
-14 -11 -17 -6 -4 -8 -13 -5 -21 3 -9 0 -11 -12 -7 -14 5 -15 3 -4 -8 6 -7 12
-17 12 -22 0 -5 -9 1 -20 14 -15 19 -19 21 -20 7 0 -9 6 -23 13 -30 18 -18 28
-48 17 -48 -6 0 -10 8 -10 18 0 13 -2 14 -9 3 -6 -8 -3 -19 8 -30 14 -15 17
-15 22 -1 3 8 10 15 15 15 5 0 14 4 20 7 15 10 58 -28 49 -42 -4 -6 -13 -9
-21 -6 -10 4 -11 0 -5 -17 6 -16 4 -25 -8 -34 -11 -9 -12 -12 -3 -13 7 0 10
-5 6 -12 -4 -7 -3 -8 5 -4 6 4 39 49 73 99 34 51 76 110 93 132 18 22 45 65
60 95 15 30 43 80 63 110 20 30 37 56 38 58 1 2 17 -4 36 -13 l33 -16 -28 24
-28 23 24 45 c13 24 37 74 52 110 19 45 33 65 42 62 7 -3 13 -1 13 5 0 6 -5
12 -11 14 -9 3 -9 9 0 25 19 37 12 77 -24 146 l-35 65 28 54 c16 29 46 85 69
123 51 90 89 184 120 304 28 108 30 175 7 198 -13 14 -17 14 -30 -3 -14 -18
-15 -18 -5 3 6 12 11 23 11 26 0 5 -19 4 -42 -1z"/>
<path d="M2767 3236 c-4 -9 -14 -12 -29 -9 -13 3 -19 2 -15 -3 17 -18 -54 -30
-131 -21 -102 12 -169 9 -203 -9 -19 -10 -35 -11 -52 -5 -38 15 -146 4 -237
-23 -91 -28 -140 -32 -170 -16 -16 9 -27 4 -61 -27 l-41 -37 32 -9 c21 -5 36
-4 45 3 8 7 22 9 32 6 40 -12 77 -15 87 -7 22 18 169 19 253 3 80 -16 85 -15
151 6 79 25 82 26 82 11 0 -23 -55 -69 -83 -69 -16 0 -26 -3 -24 -7 3 -5 -17
-6 -44 -5 -31 3 -49 0 -49 -7 0 -6 -7 -11 -16 -11 -8 0 -12 -5 -9 -10 3 -6 -1
-13 -9 -16 -21 -8 -20 -23 3 -53 16 -21 21 -23 33 -10 8 8 15 18 15 22 1 5 5
12 9 15 4 4 4 1 0 -5 -4 -8 -2 -13 6 -14 7 0 21 -2 30 -4 10 -2 22 4 27 13 5
9 13 14 17 10 4 -5 13 -3 21 3 7 6 13 8 13 5 0 -4 12 5 27 19 29 26 65 36 45
13 -7 -9 -6 -17 4 -26 12 -11 14 -9 14 8 0 11 6 20 14 20 8 0 18 5 22 12 4 7
3 8 -4 4 -7 -4 -12 -3 -12 2 0 14 35 42 52 42 9 0 18 4 20 8 2 4 19 20 38 34
30 23 41 26 71 19 43 -10 69 5 69 40 -1 30 -21 57 -39 51 -8 -3 -12 1 -8 9 2
8 9 13 15 12 6 -2 9 4 6 12 -8 19 -10 19 -17 1z"/>
<path d="M1456 2731 c-16 -29 -17 -48 -11 -130 8 -115 29 -216 61 -292 24 -58
59 -180 67 -236 3 -18 11 -49 18 -70 8 -23 13 -87 14 -160 0 -68 3 -123 8
-123 4 0 7 12 7 28 0 58 18 56 30 -4 14 -65 30 -104 54 -123 14 -12 16 -10 17
10 1 13 1 27 0 32 0 4 3 7 8 7 4 0 7 16 5 35 -1 19 2 37 7 41 5 3 6 16 3 30
-6 23 -4 24 20 18 25 -6 27 -5 20 20 -6 26 8 37 21 16 3 -5 11 -10 18 -10 6 0
-12 22 -41 50 -50 48 -63 70 -42 70 6 0 10 -5 10 -12 0 -6 3 -9 6 -5 4 3 -3
17 -14 31 -10 14 -22 23 -25 20 -3 -3 -3 5 0 18 4 18 3 20 -6 8 -7 -11 -11
-11 -11 -2 0 7 -11 29 -24 50 -14 20 -28 51 -31 67 -4 17 -20 59 -35 95 -117
274 -119 281 -121 410 -1 47 -4 99 -8 115 l-7 30 -18 -34z"/>
<path d="M2830 2123 c-41 -90 -52 -128 -56 -193 -6 -85 -11 -99 -40 -110 -13
-5 -24 -16 -24 -24 0 -8 -16 -28 -35 -45 -27 -23 -41 -29 -63 -25 -19 4 -38
-2 -62 -18 -28 -19 -36 -31 -38 -61 -3 -40 -5 -42 -66 -52 -35 -6 -37 -7 -20
-20 18 -13 18 -16 2 -44 -9 -17 -14 -32 -10 -35 4 -2 42 -7 86 -11 65 -6 78
-5 74 6 -3 10 -23 14 -66 14 -33 0 -63 3 -66 6 -3 3 4 21 17 40 15 23 37 39
67 49 56 19 120 56 120 70 0 5 5 10 11 10 6 0 9 -9 6 -20 -8 -30 11 -35 24 -6
16 34 6 56 -23 49 -21 -5 -22 -4 -7 11 9 10 29 19 44 20 15 2 31 10 36 17 6
11 11 11 20 2 9 -9 8 -18 -5 -38 -10 -15 -15 -33 -12 -41 3 -8 -1 -33 -8 -54
-10 -30 -11 -42 -2 -47 6 -3 7 -2 3 3 -5 5 12 13 38 19 25 5 46 15 45 20 0 6
14 13 32 17 73 15 73 15 72 -17 -3 -83 -8 -105 -26 -105 -10 0 -17 6 -16 13 4
17 -71 21 -162 7 -118 -17 -130 -21 -130 -36 0 -18 -5 -18 126 8 110 21 111
21 157 2 36 -15 48 -26 54 -49 5 -16 8 -176 7 -355 0 -179 2 -287 5 -240 6 74
7 79 12 40 6 -51 10 91 11 389 l1 194 90 -6 c52 -2 84 -1 76 4 -8 5 -32 9 -54
9 -22 0 -57 3 -77 6 -37 6 -38 8 -37 48 1 22 5 52 9 66 l8 25 1 -27 c2 -42 11
-58 36 -58 13 0 26 3 29 8 2 4 20 7 40 6 20 -1 38 2 41 6 3 4 23 3 45 -2 23
-6 44 -8 47 -4 11 11 -28 75 -66 109 -23 20 -35 38 -33 51 2 16 1 18 -7 7 -8
-12 -22 -10 -88 16 -43 17 -115 41 -160 54 l-82 24 6 40 c12 77 18 90 43 89
20 -1 21 0 6 11 -20 15 -20 32 3 128 10 42 17 77 15 77 -2 0 -13 -21 -24 -47z"/>
<path d="M4717 1920 l-398 -5 83 -29 c86 -30 270 -115 301 -139 16 -13 17 -46
15 -493 l-3 -478 -40 69 c-32 54 -41 64 -43 46 -2 -13 16 -57 42 -103 l46 -81
0 -353 0 -354 235 0 235 0 0 960 c0 907 -1 960 -17 961 -10 0 -27 1 -38 2 -11
1 -199 0 -418 -3z"/>
<path d="M0 935 l0 -935 215 0 215 0 0 935 0 935 -215 0 -215 0 0 -935z"/>
<path d="M1405 1822 c-6 -5 -50 -26 -100 -47 -49 -21 -94 -42 -98 -46 -5 -3
-12 -23 -17 -43 -6 -28 -5 -39 6 -43 7 -2 16 -13 19 -24 4 -11 19 -20 38 -24
77 -13 87 -13 82 -5 -3 4 8 10 23 12 27 4 27 4 22 -47 l-5 -50 -45 -3 c-25 -2
-48 -6 -52 -10 -4 -4 12 -6 35 -4 71 5 69 13 52 -249 -9 -129 -20 -259 -25
-289 -14 -87 -33 -311 -26 -317 3 -4 6 3 6 14 0 11 3 22 6 25 3 4 7 50 9 103
2 53 8 118 14 143 23 110 31 174 32 263 0 52 8 139 17 194 l18 100 106 0 c79
0 104 3 101 12 -3 7 -21 15 -41 19 -21 3 -41 7 -47 8 -5 2 -21 -1 -34 -6 -14
-5 -37 -6 -52 -3 -26 6 -26 7 -16 48 6 23 12 36 15 29 4 -14 38 -16 47 -2 3 5
13 6 22 3 9 -3 14 -2 12 3 -3 5 -12 25 -21 44 -19 40 -48 132 -48 152 0 8 -9
21 -20 31 -23 20 -23 20 -35 9z"/>
<path d="M2333 1448 c-49 -52 -79 -142 -122 -368 -5 -25 -18 -81 -30 -125 -11
-44 -16 -84 -12 -88 13 -13 18 1 45 119 49 219 105 407 135 456 17 26 29 48
28 48 -2 0 -21 -19 -44 -42z"/>
<path d="M2560 1418 c-26 -47 -30 -104 -28 -413 1 -77 1 -153 1 -170 -1 -16
-1 -79 -1 -140 0 -60 0 -135 0 -165 -1 -39 2 -50 9 -40 7 10 8 -18 4 -85 -13
-193 -11 -405 3 -405 9 0 12 33 12 133 0 72 0 350 1 617 0 383 3 506 15 588 9
56 14 107 12 113 -2 6 -14 -9 -28 -33z"/>
<path d="M1746 1189 c-3 -8 -7 -34 -8 -59 -2 -36 -7 -45 -20 -44 -25 2 -22
-13 3 -19 20 -5 20 -10 14 -109 -7 -104 -21 -255 -25 -273 -1 -5 -2 -28 -1
-49 2 -68 22 -26 26 55 4 76 21 258 32 339 12 91 -4 209 -21 159z"/>
<path d="M4408 645 c9 -140 8 -406 -2 -467 -6 -38 -12 -48 -34 -57 l-27 -10
24 -7 c22 -6 23 -11 18 -55 -8 -63 8 -64 20 -1 8 47 8 47 48 47 34 0 40 -3 37
-19 -4 -22 3 -18 55 27 l21 19 28 -61 c16 -34 34 -61 41 -61 7 0 13 1 13 3 0
19 -54 154 -70 174 -11 14 -20 35 -20 47 0 11 -4 28 -10 36 -23 37 -20 -52 4
-110 9 -22 -39 -67 -56 -53 -7 6 -28 14 -46 18 l-33 7 8 86 c13 146 7 461 -11
507 -14 38 -15 35 -8 -70z"/>
</g>
</svg>
